<?xml version="1.0" encoding="utf-8"?>

<!DOCTYPE svg PUBLIC "-//W3C//DTD SVG 1.1//EN" "http://www.w3.org/Graphics/SVG/1.1/DTD/svg11.dtd">
<svg version="1.1" id="Layer_1" xmlns="http://www.w3.org/2000/svg" xmlns:xlink="http://www.w3.org/1999/xlink" x="0px" y="0px"
	 viewBox="342.1191 29.9799 1235.7617 1860.0403" enable-background="new 342.1191 29.9799 1235.7617 1860.0403"
	 xml:space="preserve">
<g>
	<path fill="#BD0D20" d="M850.39,138.4882c1.1666-1.2068,34.3459,41.0496,38.4999,45.8148
		c14.0898,16.1626,29.4796,30.3442,45.6,44.3152c-7.2679,5.9208-27.2181,4.858-36.415,7.4388
		c-5.7987,1.6272-25.0715,4.5162-27.825,11.1213c12.7182-0.1305,27.6025-6.6354,40.3101-8.9801
		c12.3141-2.272,24.5178-3.3684,36.9958-4.2961c30.0477-2.2339,61.1204-2.4631,90.8643,2.8474
		c28.9587,5.1703,57.288,13.6395,83.4928,27.1859c18.731,9.6828,48.7056,26.6367,43.5551,52.4384
		c-4.917,24.6321-38.2983,38.7704-60.0492,43.163c-26.4711,5.3457-53.7988,0.4695-78.1146-10.8191
		c-9.006-4.181-62.9741-30.1822-44.3268-45.0432c9.1314-7.2773,25.0917-4.5469,35.8528-4.5841
		c14.6083-0.0504,27.1423,3.4864,40.7897,8.1078c-11.4561-52.5783-157.1798-12.8199-82.55,37.53
		c43.507,32.971,130.6089,54.403,177.2567,18.5104c23.8646-18.3624,26.0647-52.9595,21.5934-80.2804
		c-1.8425-5.5278-3.0358-12.5922-3.9858-18.3603c-1.3627-8.2737,15.8519-11.4557,22.4747-14.1794
		c16.9938-6.9889,33.1917-15.328,49.7002-23.3531c6.8108-3.3109,13.3632-6.9683,19.7871-10.9834
		c6.1534-3.8461,15.9324-15.906,16.9738-3.2238c0.9409,11.4577,4.967,23.9765,4.08,35.35
		c-1.521,16.2786,2.4396,33.8571,2.8387,50.2487c0.4786,19.6526,0.6158,39.3298,1.0013,59.0112
		c6.8696-2.8067,7.7755-43.5458,7.85-50.65c1.5155-7.7122-0.1838-17.9607,3.48-25c10.2747-2.1759,20.3098-4.9531,30.7288-6.4637
		c22.1332-3.2091,44.1193-4.388,66.4954-3.5115c9.9329,0.3891,19.7679,2.1432,29.3806,4.6152
		c8.4811,2.181,16.8027,2.3288,10.8291,11.1037c-21.9703,32.2731-39.417,66.5656-52.6868,103.2263
		c-7.3347,20.2637-13.9496,41.0233-17.9465,62.2121c-1.5145,8.0284-12.6952,56.2286-4.6505,60.5579
		c6.2583-23.4855,4.5569-47.7295,16.9237-69.6987c5.7452-10.2062,7.6761-9.5653,18.4963-7.8113
		c10.5728,1.9149,21.1613,3.4038,31.6879,5.6992c23.0911,5.0353,45.4377,11.9681,67.3879,20.7371
		c13.049,5.213,8.2832,6.0612,1.2241,15.1137c-8.3629,9.8279-15.7947,20.2745-22.8116,31.0959
		c-57.3063,88.3765-64.9824,190.2043-74.0201,291.9382c-8.4438,95.0479-20.6753,210.102-90.865,281.7199
		c-31.4857,32.1265-79.8276,50.1691-121.3934,65.2024c-48.9402,17.7004-97.9105,27.257-148.6198,37.6335
		c1.9595-11.3768,5.3815-22.4265,7.77-33.71c-6.5448,2.8606-9.5933,23.1949-12.0576,29.4105
		c-3.6987,9.3293-16.7324,5.0505-25.9624,7.0995c-23.0364,1.0057-46.3882,1.6359-69.36-0.5601
		c-46.4049-4.8208-92.5533-16.0964-133.79-38.5c-85.0433-48.8917-141.3027-127.8657-188.0392-212.144
		c-46.0741-83.0836-86.3227-174.8346-160.2009-237.6938c-7.7603-6.6028-15.7673-13.5603-24.2213-19.2684
		c-3.6535-2.4668-20.7238-9.7242-20.5886-13.9138c20.6664-14.7518,44.3386-26.2202,67.2356-36.9926
		c10.7144-5.0408,54.9668-26.9681,61.6056-13.3091c9.8095,20.1829,18.705,40.9212,31.1774,59.6999
		c0.9072,1.184,1.8143,2.3679,2.7215,3.5519c4.3533-4.1358-15.5168-37.9703-18.14-43.28
		c-8.3207-18.641-18.2231-36.8073-27.8168-54.8239c-18.8198-35.3431-39.081-70.2748-63.7872-101.8702
		c-4.7426-6.0651-9.586-12.07-14.9283-17.6236c-2.6635-2.7851-5.4661-5.4225-8.4077-7.9123
		c-6.3897-5.8132-0.4475-7.7357,4.5574-12.4563c13.5071-12.7396,28.4569-24.3676,44.2788-34.0849
		c33.8661-20.7995,72.3153-39.6444,112.7837-42.1088c2.4266,26.6215,2.7795,53.4973,4.0671,80.1919
		c0.697,14.45,1.8698,28.9168,2.4195,43.3644c0.4156,10.9216-3.105,33.1297,2.7234,42.5938
		c5.692-4.5175,3.3754-27.3128,3.7787-34.0188c0.85-14.1315,0.707-28.3621,0.685-42.5163
		c-0.0401-25.8256-1.0585-51.9629-2.9042-77.7372c-1.869-26.0985-6.5291-52.3189-11.9971-77.8821
		c-5.7561-26.9105-17.9536-53.1551-22.7025-79.9757c45.1846,2.1677,92.7759,10.3629,136.2908,22.5967
		c9.1539,2.5735,18.5078,5.271,27.2545,9.0499c9.0964,3.93-3.686,15.9416-7.2764,21.9958
		c-9.6127,16.2091-25.2246,38.8168-26.8988,58.0475c5.3795-2.1813,9.5687-13.9465,12.3709-18.3667
		c5.4991-8.6745,11.2496-17.187,16.6991-25.8933c9.4482-14.3039,18.9152-28.6061,28.5696-42.7719
		C793.0432,206.9087,818.6578,169.391,850.39,138.4882 M837.85,243.4582c5.5988,81.7287,71.7963,141.3835,139.1798,178.141
		c36.8751,20.1153,71.8756,45.7954,107.1689,68.6115c8.9166,5.7643,17.5795,11.5399,26.3031,17.5034
		c8.6228,5.8945-8.8523,10.1168-11.9019,14.9841c-20.5239,8.2377-38.8475,29.864-54.3698,44.9424
		c-5.2971,5.1457-8.6497,12.2361-15.0002,15.7576c-7.2034-0.6548-16.7014-10.645-22.8881-14.7004
		c-18.4872-12.1185-37.4737-23.6477-56.5867-34.7514c-40.5471-23.556-82.1338-47.9148-124.0752-68.8382
		c-36.4902-19.0231-73.7333-45.8376-103.62-73.8944c-8.0579-7.5645-15.2797-15.4351-22.5703-23.6978
		c-5.8517-6.632-10.0256-15.7192-16.5097-21.5578c-0.0749-7.0495-9.282-17.3631-11.66-24.58
		c-1.5987-3.7453-5.3278-27.7186-8.66-27.83c0.146,14.2759,4.0399,30.4372,7.7,42.23c2.5724,12.4566,9.8719,33.5222,18.99,42.79
		c5.618,12.4597,15.3087,24.6452,24.0076,35.0338c6.1503,7.3451,23.3947,31.4011,33.3824,32.6362
		c7.321,13.3769,29.6709,24.5031,41.96,32.87c11.1397,7.7546,23.7292,13.7228,35.0769,20.837
		c30.6803,19.2345,63.8156,34.6507,94.609,53.7912c31.0045,19.2717,62.6463,37.3541,93.0841,57.5718
		c25.4005,15.3429,54.2089,33.1893,76.0425,53.3874c4.1464,3.8358,8.7335,6.9797,13.0375,10.6326
		c4.896,9.2119,9.7042,5.611,2.58,15.11c-9.9674,4.9053-19.4373,16.0693-26.9188,24.285
		c-11.8542,13.0172-22.543,27.2512-30.7574,42.8668c-5.2805,10.0382-7.5553,27.9222-15.0437,36.0883
		c-9.0621-5.2167-15.1904-14.7733-23.0288-21.8126c-10.4313-9.3679-20.9623-18.7433-32.1455-27.1858
		c-18.8506-14.2309-45.1357-37.9393-68.7557-43.1416c-8.1961-7.597-22.3685-11.0591-32.6006-15.1707
		c-15.6725-6.2976-31.7134-11.7449-47.5946-17.4983c-30.2599-10.9624-60.9988-21.0929-90.6968-33.4915
		c-26.1899-10.934-52.418-22.1381-77.5141-35.7329c-23.7377-12.859-44.1877-27.9815-65.9102-43.803
		c-21.1763-15.4236-35.2935-35.9927-52.7537-54.9737c-6.0765-9.6146-12.0917-19.2487-17.31-29.0387
		c-3.2551-6.107-6.1745-12.3599-8.7914-18.7829c-1.7019-4.177-2.5196-13.8024-5.9486-16.8684
		c-9.1774,3.5578,11.7726,60.7569,17.09,67.37c5.2809,21.5301,26.5775,42.3272,40.9864,58.1914
		c36.222,39.8805,87.7709,62.8842,136.1851,84.2474c56.337,24.8593,114.3541,45.9641,169.8632,72.5239
		c12.852,6.1494,25.7476,12.2175,38.3894,18.7933c11.3362,5.8967,25.0422,18.3774,37.566,20.864
		c7.2468,9.2053,24.6187,16.4879,34.5287,22.6537c13.5011,8.4001,25.7519,18.5776,39.2612,26.9662
		c-14.584-0.9639-31.7487-4.6663-46.74-8.65c-23.0438-3.3911-45.9261-8.4064-69.0421-12.1272
		c-51.9438-8.3611-104.0957-15.3497-156.0775-23.4634c-47.2642-7.3773-94.6658-15.3669-140.7878-27.8707
		c-21.1987-5.7469-43.4269-13.0062-62.9312-23.1275c-9.8854-5.1298-19.3127-10.0138-28.3551-16.5413
		c-4.876-3.5199-16.4361-18.9897-21.7963-19.41c-0.2992,16.0494,17.8862,30.294,27.9367,40.4196
		c12.6185,12.7128,30.4857,20.9776,46.3013,28.975c32.055,16.2092,67.5835,25.7732,102.6407,35.0358
		c83.5592,22.0776,170.8618,24.2766,255.4457,40.6044c41.6947,8.0486,83.2788,17.1706,122.0658,35.027
		c35.8164,16.4889,64.7969,39.1837,92.5698,66.7082c7.0403,14.6921,21.7614,27.3783,30.4008,41.2692
		c9.8074,15.7687,19.6962,33.1779,25.9055,50.7229c7.0857,20.0214,14.1287,39.7273,20.4225,60.0665
		c2.0311,6.5635,9.9263,51.8032,13.2313,51.9313c2.3966-19.6061-5.2382-42.5028-8.7959-61.6689
		c-3.178-17.1194-5.8354-34.5372-12.0941-50.211c-9.0701-31.2554-24.4076-67.3454-42.8047-96.9325
		c-20.4015-32.8104-46.4049-61.9844-79.4688-82.4323c-6.5593-4.0565-13.1829-7.742-19.792-11.5351
		c-4.2773-2.4549-9.0162-3.889-13.4812-5.9335c-6.8375-3.131-3.3904-6.4657-1.0371-12.3367
		c7.8452-19.5721,17.08-39.6932,31.0927-55.8311c24.126-27.785,48.3584-51.295,80.8025-69.4554
		c37.2393-20.8445,76.9171-37.678,115.3086-56.3572c34.5094-16.7903,66.5809-38.7314,98.26-60.0963
		c13.7169-9.7526,27.0067-20.7184,38.7317-32.6487c2.8741-2.9244,33.3008-39.2665,26.2783-41.5913
		c-13.9246,9.9359-25.1913,25.9836-38.4143,37.2409c-15.6616,13.3334-32.3488,25.4643-49.8794,36.2236
		c-35.0698,21.524-73.1375,34.4951-111.2367,49.3513c-35.2012,13.7261-71.5886,28.8544-103.3146,48.7567
		c-10.6375,6.6731-10.5779,0.4847-19.5751-6.0624c-8.1323-6.6258-16.249-13.2708-24.4297-19.8369
		c-11.219-9.0046-21.5682-16.1295-32.1415-24.5356c-7.5663-6.0154-2.7599-7.6532,3.8304-13.3176
		c6.829-5.8697,13.4296-11.9647,20.1804-17.9214c16.1157-14.2201,32.2856-28.341,49.1622-41.7021
		c30.7666-24.3576,62.5229-45.2744,96.4918-64.7802c28.4709-16.3487,55.2214-35.7784,75.1259-61.9551
		c12.3351-16.2221,20.8578-33.7404,30.9397-50.9374c3.021-5.1529,18.4237-44.2169,13.1807-46.5837
		c-4.8223,2.0466-11.7212,23.8887-14.5986,29.1606c-6.2948,11.5331-14.4641,22.3955-22.9941,32.3943
		c-18.4355,21.6098-40.3662,40.1477-64.3749,55.2868c-24.8882,15.6937-51.6251,29.0001-77.3928,43.2095
		c-6.886,3.7973-18.3483,8.1642-23.5695,14.1889c-9.7665,0.4763-23.1367-12.9678-31.5801-18.38
		c-4.7206-3.8047-10.2095-6.4331-15.2699-9.72c-0.0992-4.1646,4.7351-5.7368,7.2874-8.4693
		c7.6357-8.1746,17.0977-16.0371,25.8121-23.0447c20.5485-16.5238,41.2476-32.8406,61.7004-49.456
		c16.7954-12.7053,39.5652-31.1074,41.0801-54.13c5.6814-10.0338,3.475-54.1793-9.8-58.82
		c5.2081,26.5729,4.3505,48.6122-15.3967,69.517c-16.4529,17.4175-36.314,28.8116-55.5394,42.9364
		c-19.4861,14.3163-38.3031,28.8222-56.473,44.8578c-7.1818,6.3382-14.8635,12.6592-21.2747,19.33
		c-4.881,5.0787-20.8199-8.1508-26.9862-11.1113c-25.4188-10.6936-48.8805-26.1217-74.3-36.93
		c-24.7657-10.9155-50.9533-27.9914-71.44-45.48c-16.093-11.8949-32.1049-30.1696-44.3112-46.5287
		c-5.744-7.6982-10.7706-15.4826-14.8412-24.0988c-3.0124-6.3762-5.5737-12.7082-7.9475-19.3525
		C842.9638,255.916,842.3514,245.3087,837.85,243.4582C838.15,247.8382,839.65,244.1982,837.85,243.4582z"/>
	<path fill="#98B930" d="M865.9601,1172.9882c-10.3741-3.0715-20.3048-7.0306-30.4251-10.76
		c-9.2894-3.4231-24.8485-16.6736-32.6049-9.74c-18.6482,5.5435-39.3098,29.524-52.1722,43.429
		c-17.4706,18.8867-32.4473,40.0153-44.9893,62.462c-6.2813,11.2418-11.9574,22.8198-17.0492,34.6472
		c-3.7521,8.7156-13.6912,25.019-11.5594,34.7518c99.0086-9.6041,208.1887-41.677,247.3499-142.03
		C904.7416,1182.8469,884.9337,1179.4094,865.9601,1172.9882C859.0699,1170.9481,884.9301,1179.4081,865.9601,1172.9882z"/>
	<path fill="#98B930" d="M1303.4498,1304.4281c-20.5242-52.171-50.9453-98.6499-93.9297-135.02
		c-6.0981-5.0813-11.6528-8.4939-16.6201-13.0199c-6.4901-4.2654-7.5769-7.5045-15.2629-4.9039
		c-7.4829,2.532-15.1094,4.6581-22.4373,7.6339c-30.7886,9.7296-62.2037,17.549-94.0598,22.87
		c17.9391,39.416,42.0621,72.6389,79.9712,95.9955c49.8262,30.699,110.9344,46.3564,169.3188,47.6245
		C1309.5852,1318.1155,1305.7416,1311.4933,1303.4498,1304.4281C1298.1901,1291.0581,1305.7399,1311.4882,1303.4498,1304.4281z"/>
	<path fill="#365A39" d="M1014.2599,1230.6881c-4.3899-15.2139-3.007-27.4606-4.23-42.7
		c-12.2155,0.5333-24.4852,0.9517-36.7125,0.8715c-5.8417-0.0383-11.6407-0.4313-17.473-0.6559
		c-10.5591-0.4066-11.3499-0.8149-14.3943,9.5244c-2.7745,13.3558-13.8106,37.698-19.5901,54.75
		c-15.9619,58.566-25.6175,117.9535-13.1801,178.2761c2.7259,13.2208,6.4484,26.235,11.1003,38.9065
		c4.6221,12.5905,10.2848,0.8862,15.2897-6.4927c16.5444-18.9725,32.2918-39.6674,45.5927-61.8302
		c15.0172-25.0227,13.7705-57.3245,19.1902-85.812C1005.129,1287.793,1017.0931,1258.7754,1014.2599,1230.6881
		C1012.9701,1226.2181,1014.85,1236.5381,1014.2599,1230.6881z"/>
	<linearGradient id="SVGID_1_" gradientUnits="userSpaceOnUse" x1="1043.2726" y1="1781.8278" x2="1043.2726" y2="1151.4781">
		<stop  offset="0" style="stop-color:#3C6A30"/>
		<stop  offset="1" style="stop-color:#A8C02B"/>
	</linearGradient>
	<path fill="url(#SVGID_1_)" d="M1111.67,1759.9882c-8.0419-26.1361-22.2155-51.3015-33.1481-76.3309
		c-8.4148-19.2654-15.8689-39.5077-22.0121-59.2191c-19.6877-49.2263-22.5035-103.6786-31.1023-155.335
		c-8.8297-53.0438-6.0356-109.9185-1.9289-163.5437c3.9908-52.1116,13.7734-103.0713,24.5712-154.0813
		c-7.2112,3.152-13.3912,31.8657-15.3499,39.25c-4.1157,15.4447-10.0416,30.4246-14.0322,45.9315
		c-8.2565,32.0829-16.7997,63.9521-21.928,96.7684c-2.0563,15.7969-4.3926,31.62-6.7796,47.364
		c-1.191,7.8555-5.2006,13.719-9.2976,20.5458c-1.9748,3.3264-4.0824,6.5665-6.3227,9.7202
		c-3.6766,6.0901-1.6388,8.6831-1.6459,15.7557c-0.0192,19.0961-0.0463,38.1921-0.0385,57.2882
		c0.0034,8.4861,0.0137,16.9722,0.0347,25.4581c0.0104,4.2427,0.0237,8.4854,0.0399,12.7279
		c5.1487,1.4771,10.4901,0.1173,15.71,0.8401c3.6831,2.6379,3.3815,20.5745,4.1108,25.4987
		c2.3283,15.7213,5.8112,32.5587,8.5054,46.3088c4.5701,23.3234,13.655,46.8997,20.955,70.345
		c7.9656,25.5834,22.4934,51.9077,37.4552,74.108c8.873,13.1659,18.8334,26.399,31.4095,36.2448
		c5.6755,4.4432,10.4641,8.2289,17.8712,4.9666C1116.9014,1777.0088,1114.7023,1767.2548,1111.67,1759.9882
		C1108.67,1750.2382,1114.0402,1765.6681,1111.67,1759.9882z"/>
</g>
</svg>
